<?xml version="1.0" encoding="iso-8859-1"?>
<!-- Generator: Adobe Illustrator 19.0.0, SVG Export Plug-In . SVG Version: 6.00 Build 0)  -->
<svg version="1.1" id="Capa_1" xmlns="http://www.w3.org/2000/svg" xmlns:xlink="http://www.w3.org/1999/xlink" x="0px" y="0px"
	 viewBox="0 0 512.001 512.001" style="enable-background:new 0 0 512.001 512.001;" xml:space="preserve">
<g>
	<path style="fill:#F9D366;" d="M487.406,226.19l5.024-1.019c6.631-1.344,6.631-10.82,0-12.166l-5.024-1.019
		c-12.657-2.566-22.549-12.458-25.116-25.116l-1.019-5.024c-1.344-6.631-10.822-6.631-12.166,0l-1.019,5.024
		c-2.566,12.657-12.458,22.549-25.116,25.116l-5.024,1.019c-6.631,1.344-6.631,10.822,0,12.166l5.024,1.019
		c12.657,2.566,22.549,12.458,25.116,25.116l1.019,5.024c1.344,6.631,10.82,6.631,12.166,0l1.019-5.024
		C464.857,238.648,474.75,228.756,487.406,226.19z"/>
	<path style="fill:#F9D366;" d="M174.739,186.927c-4.392,0-7.95-3.559-7.95-7.95v-20.669c0-4.391,3.558-7.95,7.95-7.95
		s7.95,3.559,7.95,7.95v20.669C182.689,183.368,179.13,186.927,174.739,186.927z"/>
	<path style="fill:#F9D366;" d="M174.739,242.574c-4.392,0-7.95-3.559-7.95-7.95v-20.669c0-4.391,3.558-7.95,7.95-7.95
		s7.95,3.559,7.95,7.95v20.669C182.689,239.015,179.13,242.574,174.739,242.574z"/>
	<path style="fill:#F9D366;" d="M212.897,204.416h-20.669c-4.392,0-7.95-3.559-7.95-7.95s3.558-7.95,7.95-7.95h20.669
		c4.392,0,7.95,3.559,7.95,7.95S217.288,204.416,212.897,204.416z"/>
	<path style="fill:#F9D366;" d="M157.25,204.416h-20.669c-4.392,0-7.95-3.559-7.95-7.95s3.558-7.95,7.95-7.95h20.669
		c4.392,0,7.95,3.559,7.95,7.95S161.641,204.416,157.25,204.416z"/>
</g>
<path style="fill:#4E4F75;" d="M403.669,166.313l-82.765,82.775L57.982,512.001l-43.386-43.386l262.922-262.912l82.765-82.775
	C382.014,127.602,398.995,144.583,403.669,166.313z"/>
<path style="fill:#32314C;" d="M27.318,481.332L290.24,218.42l82.765-82.775c7.803,1.678,14.986,4.95,21.215,9.452
	c-8.036-11.117-20.006-19.175-33.934-22.171l-82.765,82.775L14.599,468.613L27.318,481.332z"/>
<path style="fill:#F777CE;" d="M403.669,166.313l-82.765,82.775l-43.386-43.386l40.142-40.142l42.623-42.633
	c6.53,1.41,12.625,3.922,18.094,7.346C391.108,138.234,400.405,151.113,403.669,166.313z"/>
<path style="fill:#EF8C33;" d="M329.597,240.386l-24.104,24.094c-3.265-15.2-12.55-28.079-25.281-36.029
	c-5.47-3.424-11.565-5.947-18.094-7.346l15.402-15.402l8.703-8.703c6.53,1.41,12.625,3.922,18.084,7.356
	c3.636,2.258,6.985,4.929,9.996,7.939C321.848,219.843,327.265,229.511,329.597,240.386z"/>
<path style="fill:#ED4596;" d="M378.378,130.273l-47.997,48.007l-40.142,40.142l-12.72-12.72l40.142-40.142l42.623-42.633
	C366.813,124.337,372.908,126.85,378.378,130.273z"/>
<path style="fill:#D8782A;" d="M304.305,204.357l-14.066,14.066l-10.028,10.028c-5.47-3.424-11.565-5.947-18.094-7.346
	l15.402-15.402l8.703-8.703C292.751,198.41,298.846,200.922,304.305,204.357z"/>
<path style="fill:#F9D366;" d="M397.656,90.988l19.861-4.027c9.377-1.901,9.377-15.302,0-17.203l-19.861-4.027
	c-19.572-3.969-34.869-19.264-38.837-38.837l-4.026-19.861c-1.901-9.377-15.302-9.377-17.203,0l-4.027,19.861
	c-3.969,19.572-19.264,34.869-38.837,38.837l-19.861,4.027c-9.377,1.901-9.377,15.302,0,17.203l19.861,4.027
	c19.572,3.969,34.869,19.264,38.837,38.837l4.027,19.861c1.901,9.377,15.302,9.377,17.203,0l4.027-19.861
	C362.787,110.252,378.084,94.955,397.656,90.988z"/>
<g>
</g>
<g>
</g>
<g>
</g>
<g>
</g>
<g>
</g>
<g>
</g>
<g>
</g>
<g>
</g>
<g>
</g>
<g>
</g>
<g>
</g>
<g>
</g>
<g>
</g>
<g>
</g>
<g>
</g>
</svg>
